<svg width="814" height="609" viewBox="0 0 814 609" fill="none" xmlns="http://www.w3.org/2000/svg">
<path d="M406.6 608.2L92.7 391.6C34.7 351.5 0 285.5 0 215C0 174 11.3 134.5 32.6 100.7C52.6 68.9 81 42.7 114.7 25C148.4 7.3 186 -1.3 223.5 0.2C263.4 1.8 302.4 14.9 336.2 38.1L406.7 86.6L477 38.2C510.8 15 549.8 1.9 589.8 0.3C627.3 -1.2 665 7.4 698.7 25.2C732.4 42.9 760.8 69.1 780.8 100.9C802.1 134.7 813.4 174.3 813.4 215.3C813.4 286 778.6 352.1 720.4 392.2L406.6 608.2ZM214.9 68.9C191.8 68.9 168.5 74.6 146.8 86C98.1 111.7 69 159.9 69 215C69 262.9 92.5 307.7 131.9 334.9L406.6 524.5L681.3 335.3C720.8 308.1 744.4 263.2 744.4 215.2C744.4 160.1 715.3 111.9 666.5 86.2C617.7 60.5 561.5 63.8 516.1 95L467.7 128.3L570.6 199C593.9 215 603.9 243.8 595.5 270.8C587.1 297.8 562.6 315.9 534.3 315.9H279.1C250.9 315.9 226.3 297.8 217.9 270.8C209.5 243.9 219.5 215 242.8 199L345.7 128.3L297 94.9C272 77.7 243.6 68.9 214.9 68.9ZM295.1 246.9H518.3L406.7 170.2L295.1 246.9Z" fill="currentColor"/>
</svg>
