<svg
        width="53"
        height="57"
        viewBox="0 0 53 57"
        fill="none"
        xmlns="http://www.w3.org/2000/svg"
>
    <path
            d="M27.2781 56.835H3.43749C1.53825 56.835 0.000770931 55.2975 0.000770931 53.3983C0.000770931 52.7039 0.210721 52.0223 0.604781 51.4506L16.4318 28.4175L0.604781 5.38761C-0.470808 3.82107 -0.0735188 1.6796 1.49303 0.604008C2.06474 0.209948 2.74304 0 3.43749 0H27.2781C30.928 0 34.3421 1.79264 36.4125 4.79977L52.6917 28.411L36.419 52.0353C34.3486 55.0424 30.928 56.8383 27.2781 56.835ZM5.46916 52.313H27.2781C29.4422 52.313 31.4706 51.2471 32.698 49.4642L47.2072 28.4046L32.698 7.34501C31.4674 5.56528 29.4422 4.50583 27.2781 4.50906H5.47239L19.1708 24.4381L24.271 17.0091C25.6276 15.0356 28.3246 14.535 30.2982 15.8916C31.4739 16.6991 32.178 18.0363 32.178 19.464V37.3549C32.178 39.7483 30.2368 41.6896 27.8434 41.6896C26.4157 41.6896 25.0785 40.9854 24.271 39.8097L19.1708 32.3807L5.46916 52.313ZM21.9002 28.411L27.6592 36.7896V20.0356L21.9002 28.411Z"
            fill="currentColor"
    />
</svg>