<?xml version="1.0" standalone="no"?>
<!DOCTYPE svg PUBLIC "-//W3C//DTD SVG 20010904//EN"
 "http://www.w3.org/TR/2001/REC-SVG-20010904/DTD/svg10.dtd">
<svg version="1.0" xmlns="http://www.w3.org/2000/svg"
 width="682.000000pt" height="600.000000pt" viewBox="0 0 682.000000 600.000000"
 preserveAspectRatio="xMidYMid meet">

<g transform="translate(0.000000,600.000000) scale(0.100000,-0.100000)"
fill="#000000" stroke="none">
<path d="M0 3000 l0 -3000 3410 0 3410 0 0 3000 0 3000 -3410 0 -3410 0 0
-3000z m1230 2787 c0 -99 19 -271 46 -403 179 -908 871 -1639 1768 -1869 281
-72 216 -69 1479 -72 l1137 -4 0 -145 0 -145 -1487 4 c-1632 3 -1522 -1 -1813
63 -379 84 -785 280 -1100 531 -126 101 -317 293 -418 420 -356 450 -556 979
-588 1556 l-7 127 492 0 491 0 0 -63z m1284 -43 c51 -794 606 -1464 1374
-1659 204 -51 275 -55 1053 -55 l719 0 0 -145 0 -145 -1048 0 c-665 0 -1088 4
-1158 11 -482 47 -917 245 -1262 573 -397 379 -620 861 -658 1424 l-7 102 490
0 490 0 7 -106z m1285 -6 c13 -119 37 -228 71 -316 131 -342 417 -618 760
-735 166 -56 195 -59 628 -64 l402 -5 0 -144 0 -144 -687 0 c-680 0 -799 5
-951 36 -473 96 -890 437 -1084 887 -68 157 -106 316 -123 520 l-7 77 490 0
489 0 12 -112z m2521 -1138 c0 -17 -7 -20 -50 -20 l-50 0 0 -125 0 -125 -25 0
-25 0 0 125 0 125 -50 0 c-43 0 -50 3 -50 20 0 19 7 20 125 20 118 0 125 -1
125 -20z m154 -87 c16 -57 33 -103 36 -103 4 0 20 47 36 105 l28 105 43 0 43
0 0 -145 0 -145 -25 0 -25 0 0 116 c0 109 -9 139 -25 77 -3 -16 -18 -65 -32
-110 -22 -71 -29 -83 -47 -83 -20 0 -26 14 -56 110 -18 61 -37 113 -42 116 -4
3 -8 -47 -8 -110 0 -109 -1 -116 -20 -116 -19 0 -20 7 -20 146 l0 145 42 -3
42 -3 30 -102z m-814 -1807 l0 -145 -1117 -4 c-981 -3 -1131 -6 -1221 -20
-569 -92 -1025 -322 -1404 -710 -185 -189 -319 -379 -438 -622 -153 -311 -230
-604 -247 -940 l-6 -125 -490 0 -490 0 7 127 c35 665 300 1278 756 1747 158
162 279 264 448 377 403 268 864 422 1337 448 77 5 753 9 1503 10 l1362 1 0
-144z m0 -596 l0 -140 -652 0 c-860 0 -978 -10 -1248 -99 -678 -226 -1158
-820 -1240 -1536 -5 -49 -10 -114 -10 -142 l0 -53 -491 0 -492 0 7 102 c21
314 92 580 223 843 312 624 917 1056 1608 1149 78 11 339 14 1198 15 l1097 1
0 -140z m0 -595 l0 -145 -379 0 c-417 0 -482 -6 -645 -61 -191 -64 -360 -171
-501 -320 -195 -204 -307 -448 -337 -736 l-12 -113 -489 0 -489 0 7 83 c33
408 194 756 473 1019 187 176 392 293 637 363 181 51 215 53 1003 54 l732 1 0
-145z"/>
</g>
</svg>
