<?xml version="1.0" standalone="no"?>
<!DOCTYPE svg PUBLIC "-//W3C//DTD SVG 20010904//EN"
 "http://www.w3.org/TR/2001/REC-SVG-20010904/DTD/svg10.dtd">
<svg version="1.0" xmlns="http://www.w3.org/2000/svg"
 width="1306.000000pt" height="252.000000pt" viewBox="0 0 1306.000000 252.000000"
 preserveAspectRatio="xMidYMid meet">

<g transform="translate(0.000000,252.000000) scale(0.100000,-0.100000)"
fill="#000000" stroke="none">
<path d="M164 2278 c40 -415 302 -756 680 -884 150 -51 187 -54 782 -54 l554
0 0 55 0 55 -357 0 c-499 1 -603 12 -760 85 -295 136 -500 423 -520 728 l-6
87 -190 0 -190 0 7 -72z"/>
<path d="M643 2278 c26 -317 242 -582 562 -689 69 -23 79 -23 523 -27 l452 -3
0 54 0 54 -297 6 c-335 6 -362 10 -503 79 -67 33 -102 58 -165 122 -118 119
-180 248 -200 419 l-7 57 -186 0 -185 0 6 -72z"/>
<path d="M1121 2283 c20 -188 142 -359 316 -447 102 -51 144 -56 455 -56 l288
0 0 60 0 60 -159 0 c-184 0 -242 13 -335 75 -102 68 -169 175 -190 307 l-10
68 -186 0 -186 0 7 -67z"/>
<path d="M2620 1286 l0 -1066 210 0 210 0 0 365 0 365 243 0 c133 0 285 5 337
10 347 37 583 198 667 457 34 103 43 292 19 403 -20 94 -81 219 -141 287 -84
95 -241 181 -405 219 -65 15 -143 18 -607 21 l-533 4 0 -1065z m1070 684 c91
-33 172 -113 195 -194 27 -91 18 -215 -20 -291 -74 -147 -200 -184 -627 -185
l-198 0 0 351 0 351 293 -4 c276 -4 295 -6 357 -28z"/>
<path d="M6090 1285 l0 -1065 210 0 210 0 0 1065 0 1065 -210 0 -210 0 0
-1065z"/>
<path d="M4910 1736 c-190 -44 -318 -128 -412 -271 -34 -53 -97 -219 -86 -230
5 -5 297 -35 342 -35 28 0 33 4 49 50 42 118 124 180 252 188 160 10 260 -73
273 -225 4 -59 3 -62 -19 -68 -13 -3 -125 -26 -249 -50 -270 -55 -340 -74
-446 -125 -166 -80 -244 -189 -252 -350 -7 -142 29 -236 123 -318 97 -85 203
-117 385 -116 110 0 135 4 205 28 124 43 195 91 254 173 l38 52 11 -37 c16
-53 70 -112 133 -147 54 -30 56 -30 237 -33 l182 -4 0 61 0 61 -47 24 c-59 30
-106 78 -130 131 -16 35 -18 85 -23 440 l-6 400 -26 69 c-64 167 -179 269
-363 321 -79 22 -347 29 -425 11z m410 -966 c-27 -122 -101 -218 -209 -269
-47 -22 -70 -26 -146 -26 -73 0 -97 4 -125 21 -111 65 -106 215 9 277 55 30
85 39 306 87 l170 37 3 -36 c2 -20 -2 -61 -8 -91z"/>
<path d="M7275 1736 c-295 -68 -498 -262 -576 -552 -17 -63 -22 -107 -22 -219
0 -165 19 -251 85 -385 53 -106 177 -237 279 -294 260 -143 593 -141 844 6
303 177 437 584 314 952 -78 233 -260 407 -499 476 -96 28 -333 37 -425 16z
m305 -317 c54 -16 129 -76 167 -133 99 -147 110 -426 23 -603 -60 -122 -168
-185 -317 -184 -71 0 -91 4 -147 30 -140 68 -215 216 -216 433 -1 261 104 428
294 468 48 10 142 5 196 -11z"/>
<path d="M9140 1734 c-116 -31 -221 -103 -279 -191 l-31 -46 0 106 0 107 -210
0 -210 0 0 -745 0 -745 210 0 209 0 3 473 3 472 24 60 c31 78 117 165 180 184
112 33 231 5 291 -67 64 -78 64 -76 68 -624 l3 -498 205 0 204 0 0 385 c0 212
5 429 11 482 25 223 131 336 315 334 115 -1 195 -58 231 -166 15 -44 18 -113
21 -542 l3 -493 205 0 204 0 0 519 c0 580 -3 620 -64 748 -83 175 -236 262
-458 263 -109 0 -174 -13 -263 -55 -83 -38 -159 -103 -210 -181 l-38 -56 -31
58 c-61 113 -173 196 -304 223 -73 15 -226 13 -292 -5z"/>
<path d="M11520 1736 c-190 -44 -318 -128 -412 -271 -34 -53 -97 -219 -86
-230 5 -5 297 -35 342 -35 28 0 33 4 49 50 25 69 74 130 130 158 55 29 161 40
223 23 57 -15 117 -62 138 -106 20 -42 43 -161 34 -171 -4 -3 -123 -30 -265
-59 -142 -29 -294 -65 -338 -80 -171 -57 -273 -133 -327 -242 -28 -57 -33 -79
-36 -158 -6 -139 27 -226 120 -311 91 -84 205 -119 388 -118 109 0 135 4 203
27 43 15 102 42 130 61 50 31 147 129 147 147 0 23 17 5 33 -36 25 -61 104
-130 170 -150 36 -11 97 -15 209 -15 l158 0 0 63 0 62 -55 29 c-30 15 -66 43
-80 62 -53 69 -55 88 -55 468 0 269 -4 367 -15 420 -42 201 -164 331 -370 396
-57 19 -98 23 -225 26 -101 2 -174 -1 -210 -10z m420 -858 c0 -53 -23 -157
-44 -203 -30 -65 -107 -142 -176 -174 -74 -35 -215 -38 -270 -5 -78 45 -103
136 -58 216 33 59 107 90 338 142 107 24 198 44 203 45 4 1 7 -9 7 -21z"/>
<path d="M980 1215 c-353 -71 -650 -330 -764 -667 -25 -73 -56 -240 -56 -300
l0 -28 190 0 190 0 0 55 c0 292 207 603 495 748 171 85 264 97 762 97 l383 0
0 55 0 55 -567 -1 c-424 -1 -585 -4 -633 -14z"/>
<path d="M1237 989 c-319 -78 -569 -369 -594 -691 l-6 -78 185 0 185 0 11 80
c34 239 166 424 380 530 116 57 151 62 480 67 l302 5 0 54 0 54 -432 -1 c-391
0 -441 -2 -511 -20z"/>
<path d="M1505 762 c-137 -48 -247 -137 -314 -256 -38 -68 -71 -176 -71 -237
l0 -49 184 0 183 0 6 53 c16 135 91 258 199 328 92 59 140 70 326 76 l162 6 0
53 0 54 -297 0 -298 0 -80 -28z"/>
<path d="M12640 340 c0 -5 9 -10 19 -10 17 0 20 -8 23 -52 4 -74 28 -77 28 -4
0 49 2 56 20 56 11 0 20 5 20 10 0 6 -25 10 -55 10 -30 0 -55 -4 -55 -10z"/>
<path d="M12760 286 c0 -72 19 -94 21 -23 l1 42 15 -42 c8 -24 21 -43 28 -43
7 0 20 19 28 43 l15 42 1 -42 c2 -70 21 -49 21 22 0 52 -3 65 -15 65 -9 0 -20
-12 -25 -27 -26 -70 -26 -71 -42 -23 -8 26 -22 46 -31 48 -15 3 -17 -6 -17
-62z"/>
</g>
</svg>
